<svg xmlns="http://www.w3.org/2000/svg" version="1.0" width="300.000000pt" height="437.000000pt" viewBox="0 0 300.000000 437.000000" preserveAspectRatio="xMidYMid meet">
  <metadata>
    
Created by potrace 1.10, written by Peter Selinger 2001-2011

  </metadata>
  <g transform="translate(0.000000,437.000000) scale(0.050000,-0.050000)" fill="#ffffff" stroke="none">
    <path d="M2780 8577c-896-756-1280-1453-1173-2129 174-1103 1650-1528 2091-602 264 553 194 975-334 2020-162 321-296 612-325 709-27 91-53 164-59 164-5-1-95-73-200-162z"/>
    <path d="M5906 6341c-113-69-424-158-841-241-893-178-1153-328-1308-752-56-154-62-510-10-647 38-100 41-95-102-179l-105-61 0 126c0 422-195 599-673 609-384 9-347 99-347-850 0-422-3-766-7-766-60 0-274 128-262 156 150 341 97 809-120 1074-185 226-642 403-1311 509-197 31-579 130-688 178-53 24-105 43-115 43-68 0 16-998 113-1330 290-993 1100-1430 1743-939 35 27 77 49 93 49 90 0 521-385 543-486 6-24 13-336 17-694 9-724 24-842 142-1133 537-1316 2354-1354 2962-62 353 750 212 1717-324 2217-469 439-1169 527-1638 206l-128-88 0 267 0 267 125 119c118 113 336 287 359 287 6 0 70-40 142-88 770-516 1594 64 1785 1258 36 223 64 990 37 990-10 0-47-18-82-39zm-1544-3733c470-132 593-1180 183-1551-358-324-860-89-975 456-152 717 235 1251 792 1095z"/>
  </g>
</svg>
