<?xml version="1.0" standalone="no"?>
<!-- Generator: Adobe Fireworks 10, Export SVG Extension by Aaron Beall (http://fireworks.abeall.com) . Version: 0.6.1  -->
<!DOCTYPE svg PUBLIC "-//W3C//DTD SVG 1.1//EN" "http://www.w3.org/Graphics/SVG/1.1/DTD/svg11.dtd">
<svg id="Untitled-Page%201" viewBox="0 0 212 212" style="background-color:#ffffff00" version="1.1"
	xmlns="http://www.w3.org/2000/svg" xmlns:xlink="http://www.w3.org/1999/xlink" xml:space="preserve"
	x="0px" y="0px" width="212px" height="212px"
>
	<g id="Layer%201">
		<path d="M 132.5 56.5 L 65.5 122.5 C 64.5 121.5 33.5 92.5 33.5 92.5 L 50.5 74.5 L 65.5 88.5 L 115.5 40.5 L 132.5 56.5 ZM 177.5 105.5 L 111.5 171.5 L 78.5 140.5 L 95.5 123.5 L 111.5 137.5 L 160.5 90.5 L 177.5 105.5 ZM 0 106 C 0 164.5429 47.457 212 106 212 C 164.543 212 212 164.5429 212 106 C 212 47.4571 164.543 0 106 0 C 47.457 0 0 47.4571 0 106 Z" fill="#ffffff"/>
	</g>
</svg>