<?xml version="1.0" standalone="no"?>
<!DOCTYPE svg PUBLIC "-//W3C//DTD SVG 20010904//EN"
 "http://www.w3.org/TR/2001/REC-SVG-20010904/DTD/svg10.dtd">
<svg version="1.0" xmlns="http://www.w3.org/2000/svg"
 width="300.000000pt" height="396.000000pt" viewBox="0 0 300.000000 396.000000"
 preserveAspectRatio="xMidYMid meet">
<metadata>
Created by potrace 1.10, written by Peter Selinger 2001-2011
</metadata>
<g transform="translate(0.000000,396.000000) scale(0.100000,-0.100000)"
fill="#000000" stroke="none">
<path d="M1307 3945 c-447 -73 -828 -308 -1061 -655 -108 -160 -188 -358 -226
-557 -20 -106 -20 -133 -18 -1308 l3 -1200 25 -49 c51 -101 171 -165 326 -173
163 -10 247 25 314 128 86 133 84 121 90 594 4 307 8 426 17 442 l13 21 101
-44 c55 -24 144 -58 197 -75 87 -29 113 -32 262 -38 312 -12 501 12 705 89
198 74 352 170 502 313 271 260 423 598 440 983 15 339 -80 664 -275 944 -66
94 -254 276 -352 341 -173 114 -377 197 -575 234 -125 23 -376 28 -488 10z
m408 -725 c305 -97 511 -354 532 -662 24 -355 -211 -681 -553 -768 -94 -24
-260 -27 -352 -5 -218 51 -424 218 -507 411 -62 143 -82 325 -51 470 60 277
287 504 570 569 90 21 271 13 361 -15z"/>
</g>
</svg>
