<?xml version="1.0" standalone="no"?>
<!-- Generator: Adobe Fireworks 10, Export SVG Extension by Aaron Beall (http://fireworks.abeall.com) . Version: 0.6.1  -->
<!DOCTYPE svg PUBLIC "-//W3C//DTD SVG 1.1//EN" "http://www.w3.org/Graphics/SVG/1.1/DTD/svg11.dtd">
<svg id="Untitled-Page%201" viewBox="0 0 379 508" style="background-color:#ffffff00" version="1.1"
	xmlns="http://www.w3.org/2000/svg" xmlns:xlink="http://www.w3.org/1999/xlink" xml:space="preserve"
	x="0px" y="0px" width="379px" height="508px"
>
	<g id="Layer%201">
		<path d="M 189.5 0 C 84.8407 0 0 84.8407 0 189.5 C 0 193.8015 0.1429 198.0699 0.425 202.3 C 0.1443 204.1523 0 206.0548 0 208 L 0 470 C 0 491.6146 17.875 508 41.4546 508 L 54.5454 508 C 78.125 508 96 491.6146 96 470 L 96 354.365 C 123.5885 370.0447 155.4984 379 189.5 379 C 294.1593 379 379 294.1593 379 189.5 C 379 84.8407 294.1593 0 189.5 0 ZM 189.5 95.7 C 241.305 95.7 283.3 137.695 283.3 189.5 C 283.3 241.305 241.305 283.3 189.5 283.3 C 137.695 283.3 95.7 241.305 95.7 189.5 C 95.7 137.695 137.695 95.7 189.5 95.7 Z" fill="#fff000"/>
	</g>
</svg>