<?xml version="1.0" standalone="no"?>
<!-- Generator: Adobe Fireworks 10, Export SVG Extension by Aaron Beall (http://fireworks.abeall.com) . Version: 0.6.1  -->
<!DOCTYPE svg PUBLIC "-//W3C//DTD SVG 1.1//EN" "http://www.w3.org/Graphics/SVG/1.1/DTD/svg11.dtd">
<svg id="Untitled-Page%201" viewBox="0 0 457 457" style="background-color:#ffffff00" version="1.1"
	xmlns="http://www.w3.org/2000/svg" xmlns:xlink="http://www.w3.org/1999/xlink" xml:space="preserve"
	x="0px" y="0px" width="457px" height="457px"
>
	<g id="Layer%201">
		<path d="M 228.5 0 C 102.3013 0 0 102.3013 0 228.5 C 0 354.6987 102.3013 457 228.5 457 C 266.5811 457 302.4852 447.686 334.06 431.21 L 455 455 L 428.64 338.845 C 446.7141 306.1326 457 268.5182 457 228.5 C 457 102.3013 354.6987 0 228.5 0 ZM 228.5 101.1 C 298.862 101.1 355.9 158.138 355.9 228.5 C 355.9 298.862 298.862 355.9 228.5 355.9 C 158.138 355.9 101.1 298.862 101.1 228.5 C 101.1 158.138 158.138 101.1 228.5 101.1 Z" fill="#ffffff"/>
	</g>
</svg>