<?xml version="1.0" standalone="no"?>
<!-- Generator: Adobe Fireworks 10, Export SVG Extension by Aaron Beall (http://fireworks.abeall.com) . Version: 0.6.1  -->
<!DOCTYPE svg PUBLIC "-//W3C//DTD SVG 1.1//EN" "http://www.w3.org/Graphics/SVG/1.1/DTD/svg11.dtd">
<svg id="twitter.fw-Page%201" viewBox="0 0 1139 926" style="background-color:#ffffff00" version="1.1"
	xmlns="http://www.w3.org/2000/svg" xmlns:xlink="http://www.w3.org/1999/xlink" xml:space="preserve"
	x="0px" y="0px" width="1139px" height="926px"
>
	<path d="M 833.5 4.5 C 840.5 5.5 847.5 7.5 854.5 9.5 C 861.5 11.5 871.5 14.5 879.5 18.5 C 885.5 20.5 892.5 24.5 898.5 27.5 C 902.5 29.5 909.5 33.5 915.5 37.5 C 931.5 47.5 957.5 74.5 960.5 74.5 C 962.5 74.5 978.5 70.5 987.5 67.5 C 1025.5 57.5 1066.5 40.5 1106.5 18.5 C 1094.5 58.5 1053.5 117.5 1005.5 145.5 C 1006.5 146.5 1006.5 146.5 1009.5 146.5 C 1027.5 146.5 1079.5 131.5 1092.5 127.5 C 1107.5 122.5 1122.5 117.5 1137.5 110.5 C 1132.5 118.5 1125.5 127.5 1118.5 136.5 C 1098.5 163.5 1065.5 195.5 1039.5 216.5 C 1033.5 221.5 1023.5 224.5 1021.5 231.5 C 1018.5 239.5 1022.5 257.5 1022.5 259.5 C 1022.5 484.5 894.5 774.5 588.5 886.5 C 559.5 896.5 529.5 904.5 501.5 910.5 C 490.5 912.5 419.5 924.5 395.5 924.5 L 321.5 924.5 C 215.5 917.5 107.5 887.5 1.5 821.5 C 19.5 823.5 52.5 824.5 55.5 824.5 C 150.5 824.5 252.5 795.5 346.5 724.5 C 337.5 722.5 327.5 721.5 317.5 720.5 C 263.5 714.5 191.5 678.5 150.5 611.5 C 145.5 602.5 140.5 592.5 135.5 582.5 C 133.5 576.5 131.5 569.5 128.5 562.5 C 142.5 564.5 168.5 566.5 171.5 566.5 C 188.5 566.5 216.5 563.5 232.5 557.5 C 223.5 554.5 213.5 550.5 203.5 548.5 C 156.5 536.5 82.5 472.5 65.5 422.5 C 62.5 413.5 58.5 405.5 56.5 398.5 C 54.5 389.5 51.5 379.5 49.5 369.5 C 47.5 361.5 46.5 345.5 46.5 343.5 L 46.5 326.5 C 78.5 343.5 110.5 351.5 142.5 355.5 L 151.5 354.5 C 87.5 310.5 57.5 248.5 50.5 195.5 C 49.5 189.5 48.5 178.5 48.5 176.5 L 48.5 143.5 C 50.5 111.5 60.5 74.5 79.5 43.5 C 209.5 198.5 355.5 257.5 494.5 280.5 C 511.5 283.5 546.5 287.5 549.5 287.5 L 560.5 287.5 C 560.5 287.5 561.5 287.5 561.5 285.5 C 561.5 282.5 555.5 247.5 555.5 245.5 L 555.5 222.5 C 566.5 76.5 681.5 0.5 788.5 0.5 C 791.5 0.5 818.5 1.5 833.5 4.5 Z" fill="#ffffff"/>
</svg>